# xmcd
#
# Track frame offsets: 
#        150
#        40345
#        69232
#        90707
#        119737
#        146082
#        177585
#        200830
#
# Disc length: 3278 seconds
#
# Revision: 3
# Processed by: cddbd v1.5.2PL0 Copyright (c) Steve Scherf et al.
# Submitted via: ExactAudioCopy v1.0b3
#
DISCID=7d0ccc08
DTITLE=アリス - 栄光への脱出 アリス武道館ライヴ (紙ジャケット仕様) 24bit Remastering Disc 2 TOCT
DTITLE=26112-13
DYEAR=1978
DGENRE=JPop
TTITLE0=砂塵の彼方
TTITLE1=砂の道
TTITLE2=遠くで汽笛を聞きながら
TTITLE3=帰らざる日々
TTITLE4=カリフォルニアにあこがれて
TTITLE5=冬の嵐
TTITLE6=さらば青春の時
TTITLE7=10000人の讃歌
EXTD=
EXTT0=
EXTT1=
EXTT2=
EXTT3=
EXTT4=
EXTT5=
EXTT6=
EXTT7=
PLAYORDER=
